# xmcd CD database file
#
# Track frame offsets:
#	150
#	4085
#	38471
#	65609
#	79373
#	104578
#	137264
#	147989
#	177126
#	217084
#
# Disc length: 3103 seconds
#
# Revision: 0
# Processed by: cddbd v1.5.2PL0 Copyright (c) Steve Scherf et al.
# Submitted via: CDex 1.70beta2
#
DISCID=880c1d0a
DTITLE=Michael Bates - A Fine Balance
DYEAR=2006
DGENRE=Jazz
TTITLE0=Small Obstacles
TTITLE1=On Equilibrium
TTITLE2=Entrance
TTITLE3=Charcoal
TTITLE4=Prodigal
TTITLE5=Prokofiev
TTITLE6=Partly Innocent
TTITLE7=St. Helen
TTITLE8=Coppertone
TTITLE9=Simple Interlude
EXTD=YEAR: 2006
EXTT0=
EXTT1=
EXTT2=
EXTT3=
EXTT4=
EXTT5=
EXTT6=
EXTT7=
EXTT8=
EXTT9=
PLAYORDER=
